# xmcd CD database file
#
# Track frame offsets:
#	150
#	13478
#	27510
#	40840
#	56726
#	72160
#	86183
#	99850
#	113298
#	127131
#	140007
#	155327
#	167930
#	183317
#	195073
#	209195
#	222608
#	234394
#
# Disc length: 3301 seconds
#
# Revision: 0
# Processed by: cddbd v1.5.2PL0 Copyright (c) Steve Scherf et al.
# Submitted via: CDex 1.70beta2
#
DISCID=090ce312
DTITLE=Various Artist - How The Blues Was Born - Early Blues Moods
DYEAR=2003
DGENRE=Blues
TTITLE0=Devil 's Got My Woman - Skip James
TTITLE1=Whoopee Blues - King Solomon Hill
TTITLE2=Police Station Blues - Pete Wheatstraw
TTITLE3=Blues Before Sunrise - Leroy Carr
TTITLE4=Black Angel Blues - Tampa Red
TTITLE5=Milk Cow Blues - Kokomo Arnold
TTITLE6=Shave 'Em Dry - Lucille Bogan
TTITLE7=Cross And Evil Woman Blues - Blind Gary Davis
TTITLE8=Rag Mama Rag - Blind Boy Fuller
TTITLE9=Crow Jane - Carl Martin
TTITLE10=Baby Please Don't Go - Big Joe Williams
TTITLE11=Streamline Train - Red Nelson
TTITLE12=Think You Need A Shot - Walter Davis
TTITLE13=Oh! Red - Harlem Hamfats
TTITLE14=You Just As Well Let Her Go - Casey Bill Weldon
TTITLE15=Louise Louise Blues - Johnie Temple
TTITLE16=Rough Treatment - Bumble Bee Slim
TTITLE17=I Believe I'll Dust My Broom - Robert Johnson
EXTD=YEAR: 2003
EXTT0=
EXTT1=
EXTT2=
EXTT3=
EXTT4=
EXTT5=
EXTT6=
EXTT7=
EXTT8=
EXTT9=
EXTT10=
EXTT11=
EXTT12=
EXTT13=
EXTT14=
EXTT15=
EXTT16=
EXTT17=
PLAYORDER=
